<svg xmlns="http://www.w3.org/2000/svg" width="12" height="12" viewBox="0 0 12 12" fill="none">
    <g clip-path="url(#clip0_121_480)">
        <path d="M10.1584 2.18489C9.38045 1.82778 8.55942 1.57312 7.71589 1.42729C7.70823 1.42587 7.70031 1.42689 7.69326 1.43022C7.68622 1.43355 7.6804 1.43902 7.67664 1.44584C7.57114 1.63349 7.45429 1.87824 7.37249 2.07059C6.45014 1.93249 5.53249 1.93249 4.62909 2.07059C4.54729 1.87394 4.42619 1.63349 4.32024 1.44584C4.31632 1.43917 4.31047 1.43384 4.30347 1.43054C4.29647 1.42724 4.28863 1.42613 4.28099 1.42734C3.43738 1.57283 2.61629 1.82747 1.83839 2.18484C1.83174 2.18769 1.82613 2.19253 1.82234 2.19869C0.266641 4.52289 -0.159559 6.78994 0.049541 9.02889C0.0501322 9.03438 0.0518175 9.03968 0.0544972 9.0445C0.0571768 9.04932 0.0607962 9.05355 0.065141 9.05694C1.09154 9.81074 2.08579 10.2683 3.06159 10.5716C3.06918 10.5739 3.07728 10.5738 3.0848 10.5713C3.09232 10.5689 3.09892 10.5642 3.10369 10.5578C3.33449 10.2426 3.54024 9.91025 3.71669 9.56075C3.71912 9.55596 3.7205 9.55071 3.72075 9.54535C3.72101 9.54 3.72012 9.53464 3.71816 9.52965C3.71619 9.52466 3.71319 9.52014 3.70935 9.51639C3.70552 9.51264 3.70093 9.50974 3.69589 9.5079C3.36949 9.3841 3.05874 9.23315 2.75979 9.06175C2.75434 9.05854 2.74976 9.05405 2.74646 9.04866C2.74316 9.04327 2.74123 9.03714 2.74086 9.03083C2.74048 9.02452 2.74166 9.01822 2.7443 9.01247C2.74694 9.00673 2.75096 9.00172 2.75599 8.99789C2.81889 8.95074 2.88184 8.90174 2.94189 8.85219C2.94723 8.84779 2.95369 8.84497 2.96054 8.84404C2.9674 8.84312 2.97438 8.84412 2.98069 8.84694C4.94459 9.74359 7.07069 9.74359 9.01139 8.84694C9.01771 8.84394 9.02476 8.84279 9.0317 8.84363C9.03865 8.84447 9.04522 8.84727 9.05064 8.85169C9.11074 8.90119 9.17364 8.95074 9.23704 8.99789C9.24209 9.00168 9.24613 9.00665 9.2488 9.01237C9.25147 9.01809 9.2527 9.02437 9.25238 9.03067C9.25205 9.03698 9.25018 9.0431 9.24693 9.04851C9.24368 9.05392 9.23915 9.05845 9.23374 9.06169C8.93468 9.23637 8.6214 9.38547 8.29724 9.50739C8.29221 9.50932 8.28764 9.51229 8.28383 9.5161C8.28002 9.51991 8.27706 9.52448 8.27514 9.52952C8.27321 9.53455 8.27238 9.53994 8.27268 9.54532C8.27298 9.5507 8.27442 9.55596 8.27689 9.56075C8.45709 9.90975 8.66284 10.2421 8.88939 10.5573C8.89402 10.5638 8.90057 10.5687 8.90813 10.5713C8.91569 10.5739 8.92386 10.574 8.93149 10.5716C9.91199 10.2683 10.9062 9.81069 11.9326 9.05694C11.9371 9.05372 11.9407 9.04959 11.9434 9.04483C11.9461 9.04007 11.9478 9.03479 11.9483 9.02935C12.1985 6.44085 11.5292 4.19239 10.174 2.19914C10.1707 2.19267 10.1652 2.18765 10.1584 2.18489ZM4.00994 7.66559C3.41869 7.66559 2.93149 7.12274 2.93149 6.45609C2.93149 5.78949 3.40924 5.24664 4.00999 5.24664C4.61539 5.24664 5.09784 5.79424 5.08839 6.45614C5.08839 7.12274 4.61064 7.66559 4.00994 7.66559ZM7.99734 7.66559C7.40609 7.66559 6.91889 7.12274 6.91889 6.45609C6.91889 5.78949 7.39659 5.24664 7.99734 5.24664C8.60274 5.24664 9.08519 5.79424 9.07574 6.45614C9.07574 7.12274 8.60274 7.66559 7.99734 7.66559Z" fill="white"/>
    </g>
    <defs>
        <clipPath id="clip0_121_480">
            <rect width="12" height="12" fill="white"/>
        </clipPath>
    </defs>
</svg>