<svg xmlns="http://www.w3.org/2000/svg" width="12" height="12" viewBox="0 0 12 12" fill="none">
    <g clip-path="url(#clip0_121_478)">
        <path d="M5.99994 0C4.36994 0 4.16644 0.0075 3.52644 0.036C2.88744 0.066 2.45244 0.1665 2.06994 0.315C1.67544 0.468 1.34044 0.6735 1.00694 1.007C0.673439 1.3405 0.467439 1.675 0.314939 2.07C0.166439 2.4525 0.065439 2.8875 0.035939 3.5265C0.00593896 4.1665 -6.10352e-05 4.37 -6.10352e-05 6C-6.10352e-05 7.63 0.00743896 7.8335 0.035939 8.4735C0.065939 9.112 0.166439 9.5475 0.314939 9.93C0.467939 10.324 0.673439 10.6595 1.00694 10.993C1.34044 11.326 1.67494 11.5325 2.06994 11.685C2.45294 11.833 2.88794 11.9345 3.52644 11.964C4.16644 11.994 4.36994 12 5.99994 12C7.62994 12 7.83344 11.9925 8.47344 11.964C9.11194 11.934 9.54744 11.833 9.92994 11.685C10.3239 11.532 10.6594 11.326 10.9929 10.993C11.3259 10.6595 11.5324 10.3255 11.6849 9.93C11.8329 9.5475 11.9344 9.112 11.9639 8.4735C11.9939 7.8335 11.9999 7.63 11.9999 6C11.9999 4.37 11.9924 4.1665 11.9639 3.5265C11.9339 2.888 11.8329 2.452 11.6849 2.07C11.5319 1.6755 11.3259 1.3405 10.9929 1.007C10.6594 0.6735 10.3254 0.4675 9.92994 0.315C9.54744 0.1665 9.11194 0.0655 8.47344 0.036C7.83344 0.006 7.62994 0 5.99994 0ZM5.99994 1.08C7.60144 1.08 7.79244 1.088 8.42494 1.1155C9.00994 1.143 9.32744 1.24 9.53844 1.323C9.81944 1.4315 10.0184 1.5615 10.2294 1.771C10.4389 1.981 10.5689 2.1805 10.6774 2.4615C10.7594 2.6725 10.8574 2.99 10.8839 3.575C10.9124 4.208 10.9189 4.398 10.9189 6C10.9189 7.602 10.9114 7.7925 10.8819 8.425C10.8514 9.01 10.7539 9.3275 10.6714 9.5385C10.5594 9.8195 10.4319 10.0185 10.2219 10.2295C10.0124 10.439 9.80994 10.569 9.53194 10.6775C9.32194 10.7595 8.99944 10.8575 8.41444 10.884C7.77744 10.9125 7.58994 10.919 5.98494 10.919C4.37944 10.919 4.19194 10.9115 3.55544 10.882C2.96994 10.8515 2.64744 10.754 2.43744 10.6715C2.15294 10.5595 1.95744 10.432 1.74794 10.222C1.53744 10.0125 1.40294 9.81 1.29794 9.532C1.21544 9.322 1.11844 8.9995 1.08794 8.4145C1.06544 7.7845 1.05744 7.59 1.05744 5.9925C1.05744 4.3945 1.06544 4.1995 1.08794 3.562C1.11844 2.977 1.21544 2.655 1.29794 2.445C1.40294 2.16 1.53744 1.965 1.74794 1.7545C1.95744 1.545 2.15294 1.41 2.43744 1.3055C2.64744 1.2225 2.96294 1.125 3.54794 1.095C4.18544 1.0725 4.37294 1.065 5.97744 1.065L5.99994 1.08ZM5.99994 2.919C4.29744 2.919 2.91894 4.299 2.91894 6C2.91894 7.7025 4.29894 9.081 5.99994 9.081C7.70244 9.081 9.08094 7.701 9.08094 6C9.08094 4.2975 7.70094 2.919 5.99994 2.919ZM5.99994 8C4.89494 8 3.99994 7.105 3.99994 6C3.99994 4.895 4.89494 4 5.99994 4C7.10494 4 7.99994 4.895 7.99994 6C7.99994 7.105 7.10494 8 5.99994 8ZM9.92294 2.7975C9.92294 3.195 9.59994 3.5175 9.20294 3.5175C8.80544 3.5175 8.48294 3.1945 8.48294 2.7975C8.48294 2.4005 8.80594 2.078 9.20294 2.078C9.59944 2.0775 9.92294 2.4005 9.92294 2.7975Z" fill="white"/>
    </g>
    <defs>
        <clipPath id="clip0_121_478">
            <rect width="12" height="12" fill="white"/>
        </clipPath>
    </defs>
</svg>