<svg xmlns="http://www.w3.org/2000/svg" width="12" height="12" viewBox="0 0 12 12" fill="none">
    <g clip-path="url(#clip0_121_469)">
        <path d="M10.2234 10.226H8.44644V7.4415C8.44644 6.7775 8.43294 5.923 7.52044 5.923C6.59394 5.923 6.45244 6.6455 6.45244 7.3925V10.226H4.67544V4.5H6.38244V5.2805H6.40544C6.64394 4.8305 7.22394 4.3555 8.09044 4.3555C9.89094 4.3555 10.2239 5.5405 10.2239 7.083L10.2234 10.226ZM2.66844 3.7165C2.09644 3.7165 1.63694 3.2535 1.63694 2.684C1.63694 2.115 2.09694 1.6525 2.66844 1.6525C3.23844 1.6525 3.70044 2.115 3.70044 2.684C3.70044 3.2535 3.23794 3.7165 2.66844 3.7165ZM3.55944 10.226H1.77744V4.5H3.55944V10.226ZM11.1124 0H0.885439C0.395939 0 -6.10352e-05 0.387 -6.10352e-05 0.8645V11.1355C-6.10352e-05 11.6135 0.395939 12 0.885439 12H11.1109C11.5999 12 11.9999 11.6135 11.9999 11.1355V0.8645C11.9999 0.387 11.5999 0 11.1109 0H11.1124Z" fill="white"/>
    </g>
    <defs>
        <clipPath id="clip0_121_469">
            <rect width="12" height="12" fill="white"/>
        </clipPath>
    </defs>
</svg>